<?xml version="1.0"?>
<svg width="98" height="96" xmlns="http://www.w3.org/2000/svg" xmlns:svg="http://www.w3.org/2000/svg">
 <g class="layer">
  <title>Layer 1</title>
  <path clip-rule="evenodd" d="m48.85,0c-27.01,0 -48.85,22 -48.85,49.22c0,21.75 13.99,40.17 33.41,46.69c2.42,0.49 3.31,-1.06 3.31,-2.36c0,-1.15 -0.08,-5.06 -0.08,-9.13c-13.59,2.93 -16.42,-5.87 -16.42,-5.87c-2.18,-5.7 -5.42,-7.17 -5.42,-7.17c-4.45,-3.01 0.33,-3.01 0.33,-3.01c4.93,0.32 7.52,5.05 7.52,5.05c4.37,7.49 11.4,5.38 14.23,4.07c0.41,-3.18 1.7,-5.38 3.08,-6.6c-10.84,-1.14 -22.25,-5.38 -22.25,-24.28c0,-5.38 1.94,-9.78 5.02,-13.2c-0.49,-1.22 -2.19,-6.28 0.48,-13.04c0,0 4.13,-1.3 13.43,5.05a46.97,46.97 0 0 1 12.21,-1.63c4.13,0 8.33,0.57 12.22,1.63c9.3,-6.35 13.42,-5.05 13.42,-5.05c2.67,6.76 0.97,11.82 0.49,13.04c3.15,3.42 5.01,7.82 5.01,13.2c0,18.9 -11.4,23.06 -22.32,24.28c1.78,1.55 3.32,4.48 3.32,9.13c0,6.6 -0.08,11.9 -0.08,13.52c0,1.31 0.89,2.86 3.31,2.37c19.41,-6.52 33.41,-24.94 33.41,-46.69c0.08,-27.22 -21.84,-49.22 -48.78,-49.22z" fill="#000000" fill-rule="evenodd" id="svg_1"/>
 </g>
</svg>